<svg xmlns="http://www.w3.org/2000/svg" viewBox="0 0 64 64"><rect width="64" height="64" rx="10" fill="#0a0a0f"/><path d="M19.208000000000002 46.672Q17.908 44.852000000000004 17.596000000000004 42.044000000000004Q17.284000000000002 39.236000000000004 17.284000000000002 33.672V14.224000000000004H27.684V35.752Q27.684 37.676 27.788000000000004 39.444Q27.892000000000003 40.848 28.256 41.472Q28.62 42.096000000000004 29.504 42.252Q30.284000000000002 42.46 32.0 42.46H33.196Q33.612 42.46 34.132000000000005 42.356V50.364Q33.768 50.416 33.092 50.416H32.0Q26.54 50.416 23.576 49.532Q20.612000000000002 48.648 19.208000000000002 46.672ZM36.316 14.224000000000004H46.716V33.672Q46.716 38.768 46.508 41.368Q46.300000000000004 43.968 45.364000000000004 45.736Q44.324 47.764 42.192 48.856Q40.06 49.948 36.316 50.26Z" fill="#d4e600"/></svg>
